<svg xmlns="http://www.w3.org/2000/svg" version="1.1" width="850" height="220">
<rect x="0" y="0" width="850" height="220" style="fill:rgb(0,0,0)"/>
<rect x="0" y="0" width="16.5" height="23.25" style="fill:rgb(255,255,255)" />
<rect x="90" y="0" width="16.5" height="23.25" style="fill:rgb(255,255,255)" />
<rect x="165" y="0" width="16.5" height="23.25" style="fill:rgb(255,255,255)" />
<rect x="240" y="0" width="16.5" height="23.25" style="fill:rgb(255,255,255)" />
<rect x="330" y="0" width="16.5" height="23.25" style="fill:rgb(255,255,255)" />
<rect x="405" y="0" width="16.5" height="23.25" style="fill:rgb(255,255,255)" />
<rect x="480" y="0" width="16.5" height="23.25" style="fill:rgb(255,255,255)" />
<rect x="495" y="0" width="16.5" height="23.25" style="fill:rgb(255,255,255)" />
<rect x="510" y="0" width="16.5" height="23.25" style="fill:rgb(255,255,255)" />
<rect x="525" y="0" width="16.5" height="23.25" style="fill:rgb(255,255,255)" />
<rect x="540" y="0" width="16.5" height="23.25" style="fill:rgb(255,255,255)" />
<rect x="555" y="0" width="16.5" height="23.25" style="fill:rgb(255,255,255)" />
<rect x="570" y="0" width="16.5" height="23.25" style="fill:rgb(255,255,255)" />
<rect x="600" y="0" width="16.5" height="23.25" style="fill:rgb(255,255,255)" />
<rect x="615" y="0" width="16.5" height="23.25" style="fill:rgb(255,255,255)" />
<rect x="630" y="0" width="16.5" height="23.25" style="fill:rgb(255,255,255)" />
<rect x="645" y="0" width="16.5" height="23.25" style="fill:rgb(255,255,255)" />
<rect x="660" y="0" width="16.5" height="23.25" style="fill:rgb(255,255,255)" />
<rect x="675" y="0" width="16.5" height="23.25" style="fill:rgb(255,255,255)" />
<rect x="690" y="0" width="16.5" height="23.25" style="fill:rgb(255,255,255)" />
<rect x="720" y="0" width="16.5" height="23.25" style="fill:rgb(255,255,255)" />
<rect x="735" y="0" width="16.5" height="23.25" style="fill:rgb(255,255,255)" />
<rect x="750" y="0" width="16.5" height="23.25" style="fill:rgb(255,255,255)" />
<rect x="765" y="0" width="16.5" height="23.25" style="fill:rgb(255,255,255)" />
<rect x="780" y="0" width="16.5" height="23.25" style="fill:rgb(255,255,255)" />
<rect x="795" y="0" width="16.5" height="23.25" style="fill:rgb(255,255,255)" />
<rect x="810" y="0" width="16.5" height="23.25" style="fill:rgb(255,255,255)" />
<rect x="0" y="31" width="16.5" height="23.25" style="fill:rgb(255,255,255)" />
<rect x="15" y="31" width="16.5" height="23.25" style="fill:rgb(255,255,255)" />
<rect x="75" y="31" width="16.5" height="23.25" style="fill:rgb(255,255,255)" />
<rect x="90" y="31" width="16.5" height="23.25" style="fill:rgb(255,255,255)" />
<rect x="150" y="31" width="16.5" height="23.25" style="fill:rgb(255,255,255)" />
<rect x="180" y="31" width="16.5" height="23.25" style="fill:rgb(255,255,255)" />
<rect x="240" y="31" width="16.5" height="23.25" style="fill:rgb(255,255,255)" />
<rect x="255" y="31" width="16.5" height="23.25" style="fill:rgb(255,255,255)" />
<rect x="330" y="31" width="16.5" height="23.25" style="fill:rgb(255,255,255)" />
<rect x="390" y="31" width="16.5" height="23.25" style="fill:rgb(255,255,255)" />
<rect x="420" y="31" width="16.5" height="23.25" style="fill:rgb(255,255,255)" />
<rect x="525" y="31" width="16.5" height="23.25" style="fill:rgb(255,255,255)" />
<rect x="600" y="31" width="16.5" height="23.25" style="fill:rgb(255,255,255)" />
<rect x="720" y="31" width="16.5" height="23.25" style="fill:rgb(255,255,255)" />
<rect x="0" y="62" width="16.5" height="23.25" style="fill:rgb(255,255,255)" />
<rect x="30" y="62" width="16.5" height="23.25" style="fill:rgb(255,255,255)" />
<rect x="60" y="62" width="16.5" height="23.25" style="fill:rgb(255,255,255)" />
<rect x="90" y="62" width="16.5" height="23.25" style="fill:rgb(255,255,255)" />
<rect x="135" y="62" width="16.5" height="23.25" style="fill:rgb(255,255,255)" />
<rect x="195" y="62" width="16.5" height="23.25" style="fill:rgb(255,255,255)" />
<rect x="240" y="62" width="16.5" height="23.25" style="fill:rgb(255,255,255)" />
<rect x="270" y="62" width="16.5" height="23.25" style="fill:rgb(255,255,255)" />
<rect x="330" y="62" width="16.5" height="23.25" style="fill:rgb(255,255,255)" />
<rect x="375" y="62" width="16.5" height="23.25" style="fill:rgb(255,255,255)" />
<rect x="435" y="62" width="16.5" height="23.25" style="fill:rgb(255,255,255)" />
<rect x="525" y="62" width="16.5" height="23.25" style="fill:rgb(255,255,255)" />
<rect x="600" y="62" width="16.5" height="23.25" style="fill:rgb(255,255,255)" />
<rect x="720" y="62" width="16.5" height="23.25" style="fill:rgb(255,255,255)" />
<rect x="0" y="93" width="16.5" height="23.25" style="fill:rgb(255,255,255)" />
<rect x="45" y="93" width="16.5" height="23.25" style="fill:rgb(255,255,255)" />
<rect x="90" y="93" width="16.5" height="23.25" style="fill:rgb(255,255,255)" />
<rect x="120" y="93" width="16.5" height="23.25" style="fill:rgb(255,255,255)" />
<rect x="210" y="93" width="16.5" height="23.25" style="fill:rgb(255,255,255)" />
<rect x="240" y="93" width="16.5" height="23.25" style="fill:rgb(255,255,255)" />
<rect x="285" y="93" width="16.5" height="23.25" style="fill:rgb(255,255,255)" />
<rect x="330" y="93" width="16.5" height="23.25" style="fill:rgb(255,255,255)" />
<rect x="360" y="93" width="16.5" height="23.25" style="fill:rgb(255,255,255)" />
<rect x="450" y="93" width="16.5" height="23.25" style="fill:rgb(255,255,255)" />
<rect x="525" y="93" width="16.5" height="23.25" style="fill:rgb(255,255,255)" />
<rect x="600" y="93" width="16.5" height="23.25" style="fill:rgb(255,255,255)" />
<rect x="615" y="93" width="16.5" height="23.25" style="fill:rgb(255,255,255)" />
<rect x="630" y="93" width="16.5" height="23.25" style="fill:rgb(255,255,255)" />
<rect x="645" y="93" width="16.5" height="23.25" style="fill:rgb(255,255,255)" />
<rect x="660" y="93" width="16.5" height="23.25" style="fill:rgb(255,255,255)" />
<rect x="720" y="93" width="16.5" height="23.25" style="fill:rgb(255,255,255)" />
<rect x="735" y="93" width="16.5" height="23.25" style="fill:rgb(255,255,255)" />
<rect x="750" y="93" width="16.5" height="23.25" style="fill:rgb(255,255,255)" />
<rect x="765" y="93" width="16.5" height="23.25" style="fill:rgb(255,255,255)" />
<rect x="780" y="93" width="16.5" height="23.25" style="fill:rgb(255,255,255)" />
<rect x="0" y="124" width="16.5" height="23.25" style="fill:rgb(255,255,255)" />
<rect x="90" y="124" width="16.5" height="23.25" style="fill:rgb(255,255,255)" />
<rect x="120" y="124" width="16.5" height="23.25" style="fill:rgb(255,255,255)" />
<rect x="135" y="124" width="16.5" height="23.25" style="fill:rgb(255,255,255)" />
<rect x="150" y="124" width="16.5" height="23.25" style="fill:rgb(255,255,255)" />
<rect x="165" y="124" width="16.5" height="23.25" style="fill:rgb(255,255,255)" />
<rect x="180" y="124" width="16.5" height="23.25" style="fill:rgb(255,255,255)" />
<rect x="195" y="124" width="16.5" height="23.25" style="fill:rgb(255,255,255)" />
<rect x="210" y="124" width="16.5" height="23.25" style="fill:rgb(255,255,255)" />
<rect x="240" y="124" width="16.5" height="23.25" style="fill:rgb(255,255,255)" />
<rect x="300" y="124" width="16.5" height="23.25" style="fill:rgb(255,255,255)" />
<rect x="330" y="124" width="16.5" height="23.25" style="fill:rgb(255,255,255)" />
<rect x="360" y="124" width="16.5" height="23.25" style="fill:rgb(255,255,255)" />
<rect x="375" y="124" width="16.5" height="23.25" style="fill:rgb(255,255,255)" />
<rect x="390" y="124" width="16.5" height="23.25" style="fill:rgb(255,255,255)" />
<rect x="405" y="124" width="16.5" height="23.25" style="fill:rgb(255,255,255)" />
<rect x="420" y="124" width="16.5" height="23.25" style="fill:rgb(255,255,255)" />
<rect x="435" y="124" width="16.5" height="23.25" style="fill:rgb(255,255,255)" />
<rect x="450" y="124" width="16.5" height="23.25" style="fill:rgb(255,255,255)" />
<rect x="525" y="124" width="16.5" height="23.25" style="fill:rgb(255,255,255)" />
<rect x="600" y="124" width="16.5" height="23.25" style="fill:rgb(255,255,255)" />
<rect x="720" y="124" width="16.5" height="23.25" style="fill:rgb(255,255,255)" />
<rect x="0" y="155" width="16.5" height="23.25" style="fill:rgb(255,255,255)" />
<rect x="90" y="155" width="16.5" height="23.25" style="fill:rgb(255,255,255)" />
<rect x="120" y="155" width="16.5" height="23.25" style="fill:rgb(255,255,255)" />
<rect x="210" y="155" width="16.5" height="23.25" style="fill:rgb(255,255,255)" />
<rect x="240" y="155" width="16.5" height="23.25" style="fill:rgb(255,255,255)" />
<rect x="315" y="155" width="16.5" height="23.25" style="fill:rgb(255,255,255)" />
<rect x="330" y="155" width="16.5" height="23.25" style="fill:rgb(255,255,255)" />
<rect x="360" y="155" width="16.5" height="23.25" style="fill:rgb(255,255,255)" />
<rect x="450" y="155" width="16.5" height="23.25" style="fill:rgb(255,255,255)" />
<rect x="525" y="155" width="16.5" height="23.25" style="fill:rgb(255,255,255)" />
<rect x="600" y="155" width="16.5" height="23.25" style="fill:rgb(255,255,255)" />
<rect x="720" y="155" width="16.5" height="23.25" style="fill:rgb(255,255,255)" />
<rect x="0" y="186" width="16.5" height="23.25" style="fill:rgb(255,255,255)" />
<rect x="90" y="186" width="16.5" height="23.25" style="fill:rgb(255,255,255)" />
<rect x="120" y="186" width="16.5" height="23.25" style="fill:rgb(255,255,255)" />
<rect x="210" y="186" width="16.5" height="23.25" style="fill:rgb(255,255,255)" />
<rect x="240" y="186" width="16.5" height="23.25" style="fill:rgb(255,255,255)" />
<rect x="330" y="186" width="16.5" height="23.25" style="fill:rgb(255,255,255)" />
<rect x="360" y="186" width="16.5" height="23.25" style="fill:rgb(255,255,255)" />
<rect x="450" y="186" width="16.5" height="23.25" style="fill:rgb(255,255,255)" />
<rect x="525" y="186" width="16.5" height="23.25" style="fill:rgb(255,255,255)" />
<rect x="600" y="186" width="16.5" height="23.25" style="fill:rgb(255,255,255)" />
<rect x="615" y="186" width="16.5" height="23.25" style="fill:rgb(255,255,255)" />
<rect x="630" y="186" width="16.5" height="23.25" style="fill:rgb(255,255,255)" />
<rect x="645" y="186" width="16.5" height="23.25" style="fill:rgb(255,255,255)" />
<rect x="660" y="186" width="16.5" height="23.25" style="fill:rgb(255,255,255)" />
<rect x="675" y="186" width="16.5" height="23.25" style="fill:rgb(255,255,255)" />
<rect x="690" y="186" width="16.5" height="23.25" style="fill:rgb(255,255,255)" />
<rect x="720" y="186" width="16.5" height="23.25" style="fill:rgb(255,255,255)" />
<rect x="735" y="186" width="16.5" height="23.25" style="fill:rgb(255,255,255)" />
<rect x="750" y="186" width="16.5" height="23.25" style="fill:rgb(255,255,255)" />
<rect x="765" y="186" width="16.5" height="23.25" style="fill:rgb(255,255,255)" />
<rect x="780" y="186" width="16.5" height="23.25" style="fill:rgb(255,255,255)" />
<rect x="795" y="186" width="16.5" height="23.25" style="fill:rgb(255,255,255)" />
<rect x="810" y="186" width="16.5" height="23.25" style="fill:rgb(255,255,255)" />
</svg>
